<svg xmlns="http://www.w3.org/2000/svg" width="1081" height="153.187" viewBox="0 0 1081 153.187">
  <defs>
    <style>
      .cls-1 {
        fill: #090a0b;
        fill-rule: evenodd;
      }
    </style>
  </defs>
  <path class="cls-1" d="M76.025,216.07L59,249.59l34.051-7.11Zm-5.008,38.6,24.036-5.079,16.023,21.331Zm74.11,3.047L117.086,243.5v24.379Zm-34.051,2.032q1-9.649,2-19.3l-19.028-4.063Zm56.084,14.22a43.646,43.646,0,0,0,31.046-18.283c8.813-12.664,10.157-29.266,4.006-43.678l-26.039,33.52Zm3-28.441c1.091-8.35.047-15.73-4.006-21.331-7.81-10.8-22.483-8.938-42.062-14.221a110.826,110.826,0,0,1-23.034-9.142L127.1,176.455a96.8,96.8,0,0,0,18.027,9.142c11.564,4.386,25.2,4.6,39.058,12.189a68.34,68.34,0,0,1,16.024,12.189ZM124.1,175.439L92.049,195.754c-6.883-6.809-11.4-15.214-12.018-24.378-1.328-19.806,17.3-34.153,24.036-38.6,24.693-16.292,60.659-11.241,82.122,8.126a64.861,64.861,0,0,1,14.021,18.284l-17.025,17.268a50.123,50.123,0,0,0-10.015-19.3c-6.293-7.428-22.092-21.19-40.06-16.252-10.181,2.8-22.822,12.436-21.031,22.347C113.108,168.944,118.586,173.046,124.1,175.439Zm23.034,80.246,26.039-8.126-9.014,26.409Zm-29.043,18.283,31.046-14.22L162.154,276ZM349,242l-31-19a38.218,38.218,0,0,1-17,21c-12.834,7.248-30.01,6.075-44-4l-29,17a97.917,97.917,0,0,0,39,17c21.037,4.041,37.3.907,47-3A75.81,75.81,0,0,0,349,242Zm-98-10-26,21c-14.73-18.92-22.035-42.988-18-67,3.124-18.593,11.7-34.2,24-45a73.285,73.285,0,0,1,46-18c-11.122,17.783-25.325,42.32-31,56a57.813,57.813,0,0,0-4,14,54.662,54.662,0,0,0,2,25A53.45,53.45,0,0,0,251,232Zm12-76,22-33a77.068,77.068,0,0,1,42,12l-23,20A40.833,40.833,0,0,0,263,156Zm39,8,28-25q3.5,19,7,38Zm57,112,36-25H359v25Zm0-31V141c0.782-5.853,3.037-10.792,7-14,5.093-4.124,11.286-4.014,14-4,5.04,0.026,34.491-.19,52,0l-9,30H396v92H359Zm84-122c15.567-.31,30.711,6.363,40,19,9.578,13.03,13.893,33.925,3,50-6.215,9.172-16.137,14.874-27,17l35,67H459c-11.333-20.667-20.667-41.333-32-62H401V187l39-1c9.965-1.577,16.546-10.066,16-18-0.644-9.362-11.187-17.764-23-15Zm54,0v96a60.7,60.7,0,0,0,17,40c8.558,8.877,23.615,17.846,52,17,25-.745,41.824-9.992,49-17,10.768-10.516,15.838-24.775,17-40V123H598v98a14.009,14.009,0,0,1-1,5c-4.437,10.95-22.886,18.8-31,19-6.2.152-28.877-6.33-34-19a14.079,14.079,0,0,1-1-5V123H497ZM645,276V123h51q11.5,76.5,23,153H705q-12.5-50-25-100V276H645Zm104-32-22,32q-3.5-27.5-7-55Zm-2-14-22-17q14-45,28-90h49V276H768V176Zm222,46V123H918q-11.5,76.5-23,153h14q12.5-50,25-100V276h35ZM865,244l22,32q3.5-27.5,7-55Zm2-14,22-17q-14-45-28-90H812V276h34V176Zm173,46h38V211q19.005-28.5,38-57-12.495-9-25-18-15.495,23-31,46-19.995-29.5-40-59H979q30.5,44,61,88v65Zm65-153h35q-7.995,12-16,24Q1114.505,135,1105,123Zm-12,9q4.995-4,10-8,6.495,11,13,22Q1104.495,139,1093,132Z" transform="translate(-59 -122.875)"/>
</svg>
